<?xml version="1.0" standalone="no"?><!DOCTYPE svg PUBLIC "-//W3C//DTD SVG 1.1//EN" "http://www.w3.org/Graphics/SVG/1.1/DTD/svg11.dtd"><svg t="1607428993044" class="icon" viewBox="0 0 1024 1024" version="1.1" xmlns="http://www.w3.org/2000/svg" p-id="5158" width="200" height="200" xmlns:xlink="http://www.w3.org/1999/xlink"><defs><style type="text/css"></style></defs><path d="M459.238 561.184V246.242c0-34.18-6.347-57.047-19.043-68.603-12.695-11.556-39.062-18.148-79.101-19.776v-20.02h303.71v20.02c-39.388 1.628-65.51 8.22-78.368 19.776-12.859 11.556-19.288 34.423-19.288 68.603v314.942c61.199-3.581 103.272-17.416 126.221-41.504 22.95-24.089 34.424-68.36 34.424-132.813V298c0-60.873 9.847-103.597 29.541-128.174 19.694-24.577 52.978-36.865 99.854-36.865 9.765 0 18.961 0.325 27.587 0.976a303.913 303.913 0 0 1 25.147 2.93v23.926h-18.067c-20.833 0-35.319 6.266-43.457 18.799-8.138 12.532-12.207 41.26-12.207 86.181v110.352c0 68.36-22.46 120.361-67.382 156.006-44.923 35.645-112.142 54.931-201.66 57.861v99.121c0 34.18 6.51 57.292 19.53 69.336 13.022 12.045 39.063 18.555 78.126 19.531l-0.977 20.02H361.094v-20.02c40.039-0.976 66.406-7.08 79.101-18.31 12.696-11.23 19.043-34.75 19.043-70.557v-99.12c-89.844-2.93-157.145-22.217-201.904-57.862-44.76-35.645-67.139-87.646-67.139-156.006V265.773c0-44.922-4.069-73.649-12.207-86.181-8.138-12.533-22.786-18.799-43.945-18.799h-18.066v-23.926c7.487-1.302 15.543-2.278 24.17-2.93 8.626-0.65 17.984-0.976 28.076-0.976 46.55 0 79.834 12.37 99.853 37.11 20.02 24.739 30.03 67.382 30.03 127.929v88.867c0 65.105 11.393 109.62 34.18 133.545 22.786 23.926 65.103 37.516 126.952 40.772z" fill="#5369F8" p-id="5159"></path><path d="M459.238 561.184V246.242c0-34.18-6.347-57.047-19.043-68.603-12.695-11.556-39.062-18.148-79.101-19.776v-20.02h303.71v20.02c-39.388 1.628-65.51 8.22-78.368 19.776-12.859 11.556-19.288 34.423-19.288 68.603v314.942c61.199-3.581 103.272-17.416 126.221-41.504 22.95-24.089 34.424-68.36 34.424-132.813V298c0-60.873 9.847-103.597 29.541-128.174 19.694-24.577 52.978-36.865 99.854-36.865 9.765 0 18.961 0.325 27.587 0.976a303.913 303.913 0 0 1 25.147 2.93v23.926h-18.067c-20.833 0-35.319 6.266-43.457 18.799-8.138 12.532-12.207 41.26-12.207 86.181v110.352c0 68.36-22.46 120.361-67.382 156.006-44.923 35.645-112.142 54.931-201.66 57.861v99.121c0 34.18 6.51 57.292 19.53 69.336 13.022 12.045 39.063 18.555 78.126 19.531l-0.977 20.02H361.094v-20.02c40.039-0.976 66.406-7.08 79.101-18.31 12.696-11.23 19.043-34.75 19.043-70.557v-99.12c-89.844-2.93-157.145-22.217-201.904-57.862-44.76-35.645-67.139-87.646-67.139-156.006V265.773c0-44.922-4.069-73.649-12.207-86.181-8.138-12.533-22.786-18.799-43.945-18.799h-18.066v-23.926c7.487-1.302 15.543-2.278 24.17-2.93 8.626-0.65 17.984-0.976 28.076-0.976 46.55 0 79.834 12.37 99.853 37.11 20.02 24.739 30.03 67.382 30.03 127.929v88.867c0 65.105 11.393 109.62 34.18 133.545 22.786 23.926 65.103 37.516 126.952 40.772z" fill="#5369F8" p-id="5160"></path></svg>